<?xml version="1.0" encoding="utf-8" ?><svg xmlns="http://www.w3.org/2000/svg" xmlns:xlink="http://www.w3.org/1999/xlink" width="512" height="512" viewBox="0 0 512 512"><path fill="#FAF6EE" transform="scale(0.5 0.5)" d="M0 0L1024 0L1024 1024L0 1024L0 0Z"/><path fill="#372E2A" transform="scale(0.5 0.5)" d="M430.141 168.722C473.951 167.107 519.777 172.097 545.548 212.011C563.128 239.239 559.217 266.38 559.972 296.786C562.032 298.018 564.453 299.098 566.622 300.172C583.004 308.332 598.758 317.774 614.963 326.289C625.583 331.87 630.79 335.065 637.079 345.362C643.639 349.164 653.963 352.539 661.366 356.949C671.073 362.281 682.893 370.497 685.84 382.031C695.178 418.576 637.034 432.661 612.371 439.295C619.783 473.124 625.955 517.556 618.367 551.829C616.311 561.113 612.676 569.41 608.655 577.966C609.177 578.426 609.686 578.899 610.183 579.385C617.799 586.9 617.033 599.303 616.986 609.125C630.611 616.472 643.246 625.524 654.585 636.063C689.429 668.072 702.385 704.724 704.354 751.111C704.829 764.997 704.862 778.895 704.451 792.783C704.236 803.139 704.198 813.05 702.378 823.284C699.787 837.847 690.402 842.894 676.621 844.601C664.37 846.118 652.362 845.881 640.049 845.88L594.227 845.873L432.942 845.937L271.993 845.889L225.47 845.979C212.586 846.007 199.483 846.357 186.653 845.514C153.088 843.309 158.129 806.429 158.005 782.898C157.86 755.322 156.898 730.065 165.72 703.616C179.898 661.109 212.241 631.858 251.265 612.216C252.508 600.203 250.084 589.259 258.152 578.956C250.57 561.162 244.852 541.538 244.507 522.111C244.02 494.637 248.079 466.256 253.329 439.348C248.719 438.381 243.949 436.928 239.366 435.577C216.206 428.748 170.839 414.548 178.624 382.296C183 364.17 210.845 353.82 225.511 346.005C233.408 330.391 245.766 327.986 259.99 319.459C273.285 311.489 286.004 302.611 300.323 296.556C300.725 259.375 296.605 229.27 324.279 199.108C354.134 166.569 389.949 170.387 430.141 168.722Z"/><path fill="#46B7EC" transform="scale(0.5 0.5)" d="M360.636 614.201C373.898 613.864 374.672 617.5 384.147 625.748C399.342 638.975 412.557 654.379 427.805 667.46C428.985 668.473 431.776 669.259 433.313 669.703C440.925 667.379 447.364 659.239 453.043 653.749C461.327 645.739 469.048 637.18 477.6 629.392C483.214 624.28 489.904 617.085 497.297 614.808C498.889 614.401 505.537 614.695 507.502 614.762C508.355 650.956 506.669 687.418 507.826 723.613C508.239 736.563 516.499 747.54 528.314 752.433C527.885 765.101 528.202 779.093 528.248 791.875L528.475 822.322C465.219 823.183 400.761 822.361 337.389 822.483C337.442 798.977 337.197 774.93 337.486 751.501C343.846 747.254 354.263 740.434 356.655 732.768C360.695 719.819 359.592 702.715 359.579 689.206L359.494 636.039C359.484 629.459 359.338 622.393 359.686 615.821C359.751 614.594 359.723 614.918 360.636 614.201Z"/><path fill="#F6D9B0" transform="scale(0.5 0.5)" d="M521.343 394.168C530.742 392.81 540.153 391.535 549.574 390.344C549.241 435.665 549.319 483.242 514.487 517.257C497.166 533.941 475.254 545.067 451.564 549.208C445.847 549.989 437.312 551.321 431.698 551.099C410.341 550.257 389.81 542.326 372.549 530.183C342.597 509.111 328.554 479.403 322.39 444.372C366.033 442.229 392.538 432.497 422.81 400.018C439.115 399.574 455.14 399.934 471.454 398.735C488.341 397.494 504.547 396.481 521.343 394.168Z"/><path fill="#E2BE9A" transform="scale(0.5 0.5)" d="M521.343 394.168C530.742 392.81 540.153 391.535 549.574 390.344C549.241 435.665 549.319 483.242 514.487 517.257C497.166 533.941 475.254 545.067 451.564 549.208L449.859 548.561C449.862 546.352 455.145 543.84 456.943 542.971C511.435 516.611 526.338 448.697 521.343 394.168Z"/><path fill="#D67C36" transform="scale(0.5 0.5)" d="M447.749 193.388C471.426 190.345 490.566 193.091 510.285 207.748C539.621 229.555 536.697 259.2 536.619 291.695C529.463 291.801 504.449 292.55 498.466 291.694C478.694 291.19 458.534 291.471 438.727 291.494C427.357 291.508 396.316 286.55 394.776 302.467C392.629 301.555 376.812 301.661 373.475 302.255C372.991 302.342 373.017 302.539 372.752 303.114C372.026 296.95 369.322 294.618 364.367 291.524C352.837 290.83 336.1 291.491 323.975 291.421C323.921 290.214 323.891 289.006 323.884 287.798C323.581 258.28 324.188 218.768 354.078 203.257C372.783 193.55 396.489 193.49 417.049 193.456L447.749 193.388Z"/><path fill="#C8563F" transform="scale(0.5 0.5)" d="M447.749 193.388C471.426 190.345 490.566 193.091 510.285 207.748C539.621 229.555 536.697 259.2 536.619 291.695C529.463 291.801 504.449 292.55 498.466 291.694C496.608 262.016 502.306 236.998 478.322 212.291C472.413 206.203 456.453 193.476 447.749 193.388Z"/><path fill="#FAAE34" transform="scale(0.5 0.5)" d="M372.752 303.114C373.017 302.539 372.991 302.342 373.475 302.255C376.812 301.661 392.629 301.555 394.776 302.467C396.463 308.432 398.662 313.632 405.882 313.896C414.607 314.215 423.403 314.053 432.142 314.05L486.281 314.03C494.556 314.029 506.705 313.665 514.706 314.155C521.436 314.102 536.731 313.652 542.55 315.214C551.898 317.724 566.346 326.049 575.416 330.804C586.782 336.765 601.193 343.817 611.697 350.661C604.818 353.967 587.764 359.757 579.965 361.025C558.989 366.084 536.287 369.586 514.825 372.156C445.049 380.926 374.332 378.745 305.23 365.691C288.303 362.407 266.142 357.968 250.559 350.655C265.511 341.813 281.141 333.56 296.354 325.11C302.458 322.291 310.42 316.188 316.717 314.44C331.046 310.464 368.242 323.394 372.752 303.114Z"/><path fill="#D67C36" transform="scale(0.5 0.5)" d="M514.706 314.155C521.436 314.102 536.731 313.652 542.55 315.214C551.898 317.724 566.346 326.049 575.416 330.804C586.782 336.765 601.193 343.817 611.697 350.661C604.818 353.967 587.764 359.757 579.965 361.025C578.333 354.671 528.474 322.409 520.222 316.883C519.907 315.969 519.809 315.715 519.356 314.864C517.446 314.71 516.575 314.579 514.706 314.155Z"/><path fill="#46B7EC" transform="scale(0.5 0.5)" d="M250.694 639.431L251.083 639.553C252.159 640.956 251.463 697.772 251.477 704.031C251.529 727.365 250.637 731.44 268.5 747.337C268.288 772.332 268.309 797.327 268.562 822.321C245.582 822.766 221.64 822.462 198.57 822.461C193.644 822.403 183.292 822.575 181.542 816.663C179.01 808.107 181.623 796.976 181.756 788.041C182.178 759.697 180.039 730.955 190.952 704.066C200.211 680.685 227.209 649.51 250.694 639.431Z"/><path fill="#0D84D6" transform="scale(0.5 0.5)" d="M616.562 635.797C643.122 650.476 666.629 680.579 674.61 709.615C681.697 735.402 682.228 762.891 681.933 789.495C681.823 798.321 682.123 808.394 681.428 817.062C679.626 819.636 679.171 820.073 676.784 822.138C665.517 823.975 650.359 822.264 638.023 822.765L598.527 822.987C598.396 813.842 598.802 804.581 598.821 795.431L598.559 752.23C603.204 747.254 609.413 742.365 612.821 736.455C617.572 728.215 616.544 716.22 616.525 706.921C616.441 695.793 616.455 684.666 616.565 673.538C617.611 663.879 616.647 646.014 616.562 635.797Z"/><path fill="#46B7EC" transform="scale(0.5 0.5)" d="M616.565 673.538C624.309 678.371 630.018 697.609 631.74 705.942C639.592 743.92 637.65 784.278 638.023 822.765L598.527 822.987C598.396 813.842 598.802 804.581 598.821 795.431L598.559 752.23C603.204 747.254 609.413 742.365 612.821 736.455C617.572 728.215 616.544 716.22 616.525 706.921C616.441 695.793 616.455 684.666 616.565 673.538Z"/><path fill="#8F5E42" transform="scale(0.5 0.5)" d="M290.337 385.418C302.617 388.659 315.408 390.501 327.953 392.398C347.863 395.41 370.089 398.16 390.183 398.631C373.367 413.337 350.006 421.204 327.779 421.99C320.712 422.239 312.326 421.236 305.485 422.534C301.894 423.215 299.761 426.929 298.036 429.873C297.944 431.276 297.919 432.682 297.959 434.087C298.138 439.828 299.797 448.544 300.966 454.31C308.13 489.666 321.44 514.91 347.568 539.572C352.048 543.809 359.04 548.842 364.118 552.731C364.238 565.218 364.203 577.706 364.012 590.192L358.356 589.391C353.822 584.329 352.003 577.463 345.477 573.248C332.677 564.983 315.817 565.92 301.215 565.898C293.108 565.886 286.17 565.695 278.305 567.242C278.051 566.848 277.804 566.449 277.565 566.046C255.769 529.266 275.039 440.062 285.82 400.707C287.147 395.865 289.008 390.421 290.337 385.418Z"/><path fill="#4E8E95" transform="scale(0.5 0.5)" d="M539.996 589.612C553.217 588.908 571.148 588.923 584.222 590.153C597.057 591.359 594.001 614.864 593.994 624.853L593.977 664.394L594.013 696.045C594.073 709.521 597.313 726.359 584.161 734.017C576.753 735.429 553.146 734.123 544.453 733.825C542.021 733.548 538.918 732.497 536.85 731.255C528.823 726.435 530.775 706.537 530.729 698.041L530.603 649.15C530.613 640.522 530.571 631.894 530.478 623.267C530.307 613.417 526.973 591.769 539.996 589.612Z"/><path fill="#372E2A" transform="scale(0.5 0.5)" d="M557.081 671.08C563.163 670.542 568.98 671.233 571.337 677.602C575.08 687.718 574.6 697.476 564.397 702.429C545.61 704.562 543.189 680.557 557.081 671.08Z"/><path fill="#4E8E95" transform="scale(0.5 0.5)" d="M286.337 589.71C297.286 589.269 308.728 589.847 319.527 589.487C339.98 588.806 336.267 600.782 336.185 616.686L336.11 643.56C336.097 669.605 336.664 697.868 336.122 723.694C331.97 727.377 329.678 728.806 324.125 729.474C274.684 731.434 274.026 732.988 273.951 682.834L273.981 637.267C274.017 630.437 273.988 623.607 273.894 616.778C273.761 609.574 273.164 602.809 274.346 595.701C278.085 590.922 280.607 590.267 286.337 589.71Z"/><path fill="#372E2A" transform="scale(0.5 0.5)" d="M303.576 669.582C322.119 670.684 318.77 705.553 305.326 708.017C286.896 705.232 288.512 673.721 303.576 669.582Z"/><path fill="#8F5E42" transform="scale(0.5 0.5)" d="M572.161 385.255C574.668 385.632 575.682 385.441 576.362 388.102C579.136 398.952 582.377 410.003 584.808 420.924C592.663 456.215 602.454 500.569 597.536 536.758C596.048 547.447 592.975 557.854 588.42 567.637C578.972 565.211 567.166 565.931 557.36 565.892C541.506 565.829 528.571 565.274 516.06 576.315C511.54 581.495 510.207 584.903 507.626 591.281C507.494 591.372 503.064 591.574 502.502 591.605C502.465 581.167 501.963 565.142 502.814 555.246C522.78 542.47 535.785 530.839 548.849 510.57C573.502 472.321 571.865 428.512 572.161 385.255Z"/><path fill="#E2BE9A" transform="scale(0.5 0.5)" d="M387.437 564.331C424.917 575.889 441.217 575.795 478.976 565.666C478.801 575.977 478.46 586.689 478.874 596.959C474.858 601.737 466.166 609.764 461.481 614.348C454.232 621.628 440.246 634.917 432.255 640.918C417.153 626.573 402.553 611.735 387.41 597.348C387.085 586.731 387.383 575.025 387.437 564.331Z"/><path fill="#D67C36" transform="scale(0.5 0.5)" d="M628.35 367.399C630.497 367.426 631.832 367.943 633.8 368.732C679.531 387.073 668.568 396.606 628.567 411.036C622.305 413.31 613.607 415.435 606.972 417.356C605.036 405.784 600.72 391.719 597.505 380.214C611.616 375.919 615.41 374.733 628.35 367.399Z"/><path fill="#D67C36" transform="scale(0.5 0.5)" d="M234.408 367.408C237.032 368.212 244.856 372.666 248.014 374.081C255.051 377.234 260.162 378.652 267.487 380.653C264.434 392.883 261.236 404.56 258.355 416.915C251.506 415.888 245.743 414.039 239.115 412.099C237.727 411.671 236.346 411.219 234.974 410.743C225.25 407.383 188.05 394.86 205.723 382.224C212.89 377.1 226.24 371.147 234.408 367.408Z"/><path fill="#FAAE34" transform="scale(0.5 0.5)" d="M572.954 758.099L574.214 758.58C575.287 759.741 575.694 761.853 575.688 763.38C575.624 782.862 576.132 802.96 575.616 822.374L551.969 822.442C551.637 817.283 551.827 810.428 551.833 805.125C551.776 799.71 550.95 761.487 552.207 759.017C555.477 763.626 552.561 786.177 567.447 778.961C573.445 776.053 571.484 764.258 572.954 758.099Z"/><path fill="#FAAE34" transform="scale(0.5 0.5)" d="M310.36 751.662C313.665 752.297 315.1 754.821 315.056 757.961C314.756 779.286 314.468 800.969 314.442 822.28C307.92 822.379 301.398 822.41 294.875 822.374C293.119 822.23 293.877 822.519 292.483 821.572C289.008 814.327 290.764 787.458 291.483 778.913C294.066 779.032 296.68 779.168 299.265 779.12C313.654 778.855 309.389 761.974 310.297 752.269L310.36 751.662Z"/><path fill="#FAAE34" transform="scale(0.5 0.5)" d="M292.426 751.856C298.58 752.051 296.013 757.71 294.202 761.286C293.906 761.497 293.153 761.888 292.807 762.079L292.195 761.378C291.679 758.279 292.16 755.027 292.426 751.856Z"/><path fill="#4E8E95" transform="scale(0.5 0.5)" d="M743.916 411.329C806.328 406.61 860.765 453.346 865.547 515.753C870.33 578.161 823.651 632.645 761.248 637.492C698.754 642.345 644.174 595.584 639.384 533.085C634.595 470.587 681.412 416.055 743.916 411.329Z"/><path fill="white" transform="scale(0.5 0.5)" d="M743.303 612.573C723.919 612.135 701.02 599.443 688.012 585.484C633.676 527.175 675.653 432.821 756.453 435.49C779.189 436.469 800.631 446.337 816.162 462.971C832.213 477.294 839.687 498.686 840.806 519.757C842.255 543.38 834.1 566.586 818.191 584.107C802.827 601.087 781.317 611.961 758.41 612.749C753.955 612.902 747.578 613.226 743.303 612.573Z"/><defs><linearGradient id="gradient_0" gradientUnits="userSpaceOnUse" x1="832.26782" y1="560.47827" x2="783.00018" y2="536.55798"><stop offset="0" stop-color="#F7D8AB"/><stop offset="1" stop-color="#E8DFC5"/></linearGradient></defs><path fill="url(#gradient_0)" transform="scale(0.5 0.5)" d="M816.162 462.971C832.213 477.294 839.687 498.686 840.806 519.757C842.255 543.38 834.1 566.586 818.191 584.107C802.827 601.087 781.317 611.961 758.41 612.749C753.955 612.902 747.578 613.226 743.303 612.573C746.953 612.568 749.861 612.774 753.401 611.81C808.2 596.888 837.52 544.075 824.723 489.401C822.761 481.022 817.148 470.645 816.162 462.971Z"/><path fill="#C8563F" transform="scale(0.5 0.5)" d="M752.649 460.532C772.324 457.667 767.614 497.832 767.629 509.048L780.078 508.566C788.93 508.283 808.786 507.159 815.401 513.627C821.872 519.955 819.474 532.878 808.714 534.038C795.165 535.498 781.33 534.874 767.649 534.604C767.899 545.853 768.396 557.84 767.817 569.084C767.448 576.276 763.703 581.148 757.424 584.36C735.036 585.479 740.992 548.801 741.954 534.774C738.139 534.891 734.323 534.989 730.506 535.066C720.648 535.243 691.407 537.36 692.014 522.032C692.496 509.883 704.06 508.867 713.561 508.898C722.907 508.928 732.303 509 741.712 509.173C742.422 492.112 734.104 470.305 752.649 460.532Z"/><circle cx="256" cy="256" r="234" fill="none" stroke="#B85C30" stroke-width="20"/></svg>